<svg width="712" height="706" viewBox="0 0 712 706" fill="none" xmlns="http://www.w3.org/2000/svg">
<g filter="url(#filter0_i_3_36)">
<path fill-rule="evenodd" clip-rule="evenodd" d="M1 308.673C67.7355 41.2325 304.056 -79.5604 540 58.6732L507 197.673H452C406.263 63.269 178.93 154.621 163 308.673H197C197.381 314.4 197.686 319.98 197.982 325.395C199.927 361.002 201.484 389.485 221.613 405.683C221.207 410.975 221 416.323 221 421.719C221 470.783 238.093 515.854 266.649 551.303C106.355 560.312 19.2654 474.523 38 308.673H1ZM331.817 543.138C308.937 547.437 287.192 550.149 266.649 551.303C304.54 598.342 362.615 628.437 427.719 628.437C472.1 628.437 513.215 614.451 546.896 590.646C571.006 615.942 615.881 662.387 646.172 689.906C689.369 729.149 734.198 684.158 697.371 642.779C671.43 613.632 622.758 566.67 596.25 541.454C620.296 507.67 634.438 466.346 634.438 421.719C634.438 307.551 541.886 215 427.719 215C397.903 215 369.562 221.312 343.959 232.673H246L226 308.673H254.62C236.11 336.958 224.346 370.057 221.613 405.683C232.416 414.377 248.57 419.532 273.006 420.351C273.002 420.806 273 421.262 273 421.719C273 470.945 295.989 514.801 331.817 543.138ZM491.177 280.571L500 232.673H343.959C307.352 248.917 276.341 275.481 254.62 308.673H263L251 365.673H283.463C276.863 382.65 273.173 401.08 273.006 420.351C286.368 420.799 302.206 419.949 321 417.673L332 365.673H283.463C305.914 307.929 362.037 267 427.719 267C450.333 267 471.813 271.852 491.177 280.571ZM491.177 280.571L486 308.673H522L478 499.673C425.305 520.347 376.407 534.758 331.817 543.138C358.18 563.99 391.496 576.437 427.719 576.437C513.168 576.437 582.438 507.168 582.438 421.719C582.438 358.884 544.98 304.797 491.177 280.571Z" fill="#FF2E63"/>
</g>
<path d="M540 58.6732L540.486 58.7887L540.572 58.4287L540.253 58.2418L540 58.6732ZM1 308.673L0.514876 308.552L0.359901 309.173H1V308.673ZM507 197.673V198.173H507.395L507.486 197.789L507 197.673ZM452 197.673L451.527 197.834L451.642 198.173H452V197.673ZM163 308.673L162.503 308.622L162.446 309.173H163V308.673ZM197 308.673L197.499 308.64L197.468 308.173H197V308.673ZM197.982 325.395L197.482 325.423L197.482 325.423L197.982 325.395ZM38 308.673L38.4968 308.729L38.5597 308.173H38V308.673ZM546.896 590.646L547.258 590.301L546.96 589.989L546.607 590.238L546.896 590.646ZM646.172 689.906L645.836 690.276L645.836 690.276L646.172 689.906ZM697.371 642.779L696.998 643.112L696.998 643.112L697.371 642.779ZM596.25 541.454L595.843 541.164L595.591 541.518L595.906 541.817L596.25 541.454ZM246 232.673V232.173H245.615L245.516 232.546L246 232.673ZM226 308.673L225.516 308.546L225.351 309.173H226V308.673ZM500 232.673L500.492 232.764L500.601 232.173H500V232.673ZM263 308.673L263.489 308.776L263.616 308.173H263V308.673ZM251 365.673L250.511 365.57L250.384 366.173H251V365.673ZM321 417.673L321.06 418.17L321.415 418.127L321.489 417.777L321 417.673ZM332 365.673L332.489 365.777L332.617 365.173H332V365.673ZM486 308.673L485.508 308.583L485.399 309.173H486V308.673ZM522 308.673L522.487 308.785L522.628 308.173H522V308.673ZM478 499.673L478.183 500.139L478.428 500.042L478.487 499.785L478 499.673ZM540.253 58.2418C422.156 -10.9481 303.914 -15.3353 206.831 31.0943C109.757 77.5196 33.9114 174.716 0.514876 308.552L1.48512 308.794C34.824 175.189 110.507 78.2693 207.262 31.9964C304.009 -14.2723 421.9 -9.93918 539.747 59.1046L540.253 58.2418ZM507.486 197.789L540.486 58.7887L539.514 58.5577L506.514 197.558L507.486 197.789ZM452 198.173H507V197.173H452V198.173ZM163.497 308.725C171.438 231.93 232.09 170.712 296.505 145.468C328.706 132.848 361.793 129.241 389.652 137.133C417.488 145.017 440.146 164.39 451.527 197.834L452.473 197.512C440.986 163.755 418.075 144.144 389.925 136.171C361.798 128.203 328.48 131.862 296.14 144.537C231.471 169.88 170.492 231.364 162.503 308.622L163.497 308.725ZM197 308.173H163V309.173H197V308.173ZM198.481 325.368C198.185 319.953 197.88 314.37 197.499 308.64L196.501 308.706C196.882 314.43 197.186 320.007 197.482 325.423L198.481 325.368ZM221.926 405.294C211.979 397.289 206.599 386.237 203.466 372.705C200.329 359.159 199.454 343.184 198.481 325.368L197.482 325.423C198.454 343.213 199.331 359.283 202.491 372.93C205.655 386.59 211.117 397.879 221.299 406.073L221.926 405.294ZM221.5 421.719C221.5 416.336 221.706 411.001 222.111 405.721L221.114 405.645C220.707 410.95 220.5 416.31 220.5 421.719H221.5ZM267.038 550.99C238.551 515.626 221.5 470.664 221.5 421.719H220.5C220.5 470.901 237.635 516.082 266.26 551.617L267.038 550.99ZM37.5032 308.617C28.1258 391.631 45.2228 454.71 84.8282 495.907C124.432 537.101 186.444 556.311 266.677 551.803L266.621 550.804C186.559 555.303 124.88 536.124 85.5491 495.214C46.22 454.305 29.1396 391.565 38.4968 308.729L37.5032 308.617ZM1 309.173H38V308.173H1V309.173ZM266.677 551.803C287.244 550.647 309.011 547.932 331.909 543.629L331.724 542.646C308.864 546.942 287.14 549.651 266.621 550.804L266.677 551.803ZM427.719 627.937C362.773 627.937 304.839 597.915 267.038 550.99L266.26 551.617C304.242 598.768 362.457 628.937 427.719 628.937V627.937ZM546.607 590.238C513.008 613.985 471.993 627.937 427.719 627.937V628.937C472.207 628.937 513.422 614.917 547.185 591.054L546.607 590.238ZM646.508 689.536C616.233 662.031 571.37 615.599 547.258 590.301L546.534 590.991C570.643 616.285 615.53 662.743 645.836 690.276L646.508 689.536ZM696.998 643.112C715.278 663.651 713.198 684.93 701.434 696.215C689.671 707.499 667.969 709.032 646.508 689.536L645.836 690.276C667.572 710.022 689.882 708.682 702.126 696.936C714.37 685.191 716.291 663.286 697.745 642.447L696.998 643.112ZM595.906 541.817C622.416 567.035 671.073 613.982 696.998 643.112L697.745 642.447C671.787 613.281 623.099 566.305 596.595 541.092L595.906 541.817ZM633.938 421.719C633.938 466.238 619.831 507.462 595.843 541.164L596.657 541.744C620.762 507.878 634.938 466.453 634.938 421.719H633.938ZM427.719 215.5C541.61 215.5 633.938 307.827 633.938 421.719H634.938C634.938 307.275 542.162 214.5 427.719 214.5V215.5ZM344.161 233.13C369.702 221.797 397.974 215.5 427.719 215.5V214.5C397.832 214.5 369.422 220.827 343.756 232.216L344.161 233.13ZM343.959 232.173H246V233.173H343.959V232.173ZM245.516 232.546L225.516 308.546L226.484 308.8L246.484 232.8L245.516 232.546ZM226 309.173H254.62V308.173H226V309.173ZM222.111 405.721C224.838 370.181 236.573 337.164 255.039 308.947L254.202 308.399C235.647 336.753 223.854 369.932 221.114 405.645L222.111 405.721ZM273.023 419.851C248.641 419.034 232.611 413.892 221.926 405.294L221.299 406.073C232.222 414.862 248.5 420.03 272.989 420.851L273.023 419.851ZM273.5 421.719C273.5 421.264 273.502 420.809 273.506 420.355L272.506 420.347C272.502 420.803 272.5 421.261 272.5 421.719H273.5ZM332.127 542.746C296.414 514.5 273.5 470.785 273.5 421.719H272.5C272.5 471.104 295.564 515.103 331.506 543.53L332.127 542.746ZM491.669 280.661L500.492 232.764L499.508 232.583L490.685 280.48L491.669 280.661ZM500 232.173H343.959V233.173H500V232.173ZM255.039 308.947C276.707 275.834 307.643 249.334 344.161 233.13L343.756 232.216C307.06 248.499 275.975 275.127 254.202 308.399L255.039 308.947ZM254.62 309.173H263V308.173H254.62V309.173ZM262.511 308.57L250.511 365.57L251.489 365.776L263.489 308.776L262.511 308.57ZM251 366.173H283.463V365.173H251V366.173ZM273.506 420.355C273.672 401.146 277.35 382.776 283.929 365.854L282.997 365.492C276.375 382.524 272.673 401.014 272.506 420.347L273.506 420.355ZM320.94 417.177C302.163 419.451 286.352 420.298 273.023 419.851L272.989 420.851C286.384 421.299 302.249 420.448 321.06 418.17L320.94 417.177ZM331.511 365.57L320.511 417.57L321.489 417.777L332.489 365.777L331.511 365.57ZM283.463 366.173H332V365.173H283.463V366.173ZM283.929 365.854C306.308 308.296 362.25 267.5 427.719 267.5V266.5C361.824 266.5 305.52 307.562 282.997 365.492L283.929 365.854ZM427.719 267.5C450.26 267.5 471.671 272.336 490.971 281.027L491.382 280.115C471.955 271.367 450.405 266.5 427.719 266.5V267.5ZM486.492 308.764L491.669 280.661L490.685 280.48L485.508 308.583L486.492 308.764ZM522 308.173H486V309.173H522V308.173ZM478.487 499.785L522.487 308.785L521.513 308.561L477.513 499.561L478.487 499.785ZM331.909 543.629C376.536 535.243 425.464 520.821 478.183 500.139L477.817 499.208C425.146 519.872 376.279 534.274 331.724 542.646L331.909 543.629ZM427.719 575.937C391.612 575.937 358.405 563.53 332.127 542.746L331.506 543.53C357.955 564.449 391.379 576.937 427.719 576.937V575.937ZM581.938 421.719C581.938 506.891 512.891 575.937 427.719 575.937V576.937C513.444 576.937 582.938 507.444 582.938 421.719H581.938ZM490.971 281.027C544.602 305.176 581.938 359.088 581.938 421.719H582.938C582.938 358.68 545.358 304.419 491.382 280.115L490.971 281.027Z" fill="#FF2E63"/>
<defs>
<filter id="filter0_i_3_36" x="0.359924" y="0.499939" width="711.14" height="709.001" filterUnits="userSpaceOnUse" color-interpolation-filters="sRGB">
<feFlood flood-opacity="0" result="BackgroundImageFix"/>
<feBlend mode="normal" in="SourceGraphic" in2="BackgroundImageFix" result="shape"/>
<feColorMatrix in="SourceAlpha" type="matrix" values="0 0 0 0 0 0 0 0 0 0 0 0 0 0 0 0 0 0 127 0" result="hardAlpha"/>
<feOffset dy="4"/>
<feGaussianBlur stdDeviation="2"/>
<feComposite in2="hardAlpha" operator="arithmetic" k2="-1" k3="1"/>
<feColorMatrix type="matrix" values="0 0 0 0 0 0 0 0 0 0 0 0 0 0 0 0 0 0 0.25 0"/>
<feBlend mode="normal" in2="shape" result="effect1_innerShadow_3_36"/>
</filter>
</defs>
</svg>
