<svg width="659" height="636" viewBox="0 0 659 636" fill="none" xmlns="http://www.w3.org/2000/svg">
<g filter="url(#filter0_bi_3_42)">
<path fill-rule="evenodd" clip-rule="evenodd" d="M1 308.673C67.7355 41.2325 304.056 -79.5604 540 58.6732L516.894 156H425.439C350.144 88.3715 176.836 174.873 163 308.673H197C197.381 314.4 197.686 319.98 197.982 325.395C201.328 386.628 203.523 426.792 301 419.645V548.062C118.927 571.812 17.9678 486.011 38 308.673H1ZM321 545.067C314.229 546.208 307.562 547.206 301 548.062V625C301 630.523 305.477 635 311 635H648C653.523 635 658 630.523 658 625V236.097C658 233.438 656.941 230.888 655.057 229.011L584.67 158.914C582.796 157.048 580.259 156 577.614 156H516.894L512.145 176H441.962C437.222 168.239 431.666 161.593 425.439 156H311C305.477 156 301 160.477 301 166V232.673H246L226 308.673H263L251 365.673H301V419.645C307.265 419.185 313.923 418.53 321 417.673V545.067ZM478.655 496.828L478 499.673C421.01 522.031 368.462 537.066 321 545.067V615H638V246.097H577.614C572.091 246.097 567.614 241.62 567.614 236.097V176H512.145L507 197.673H452C449.272 189.657 445.899 182.444 441.962 176H321V232.673H301V365.673H321V417.673L332 365.673H321V232.673H500L491.899 276.648H418.357H367.167C361.644 276.648 357.167 281.125 357.167 286.648V319.674V353.374V387.075V419.427V453.128V486.828C357.167 492.351 361.644 496.828 367.167 496.828H418.357H478.655ZM483.263 476.828L478.655 496.828H545.62H595.388C600.911 496.828 605.388 492.351 605.388 486.828V453.128V419.427V387.075V353.374V319.674V286.648C605.388 281.125 600.911 276.648 595.388 276.648H545.62H491.899L488.215 296.648H428.357V309.674H521.769L517.162 329.674H428.357V343.374H514.006L509.399 363.374H428.357V377.075H506.243L501.635 397.075H428.357V409.427H498.79L494.182 429.427H428.357V443.128H491.026L486.419 463.128H428.357V476.828H483.263ZM483.263 476.828L486.419 463.128H535.62V476.828H483.263ZM491.026 443.128H535.62V429.427H494.182L491.026 443.128ZM498.79 409.427H535.62V397.075H501.635L498.79 409.427ZM506.243 377.075H535.62V363.374H509.399L506.243 377.075ZM514.006 343.374H535.62V329.674H517.162L514.006 343.374ZM521.769 309.674H535.62V296.648H488.215L486 308.673H522L521.769 309.674ZM623.787 226.097L587.614 190.072V226.097H623.787ZM367.167 206.551C361.644 206.551 357.167 211.028 357.167 216.551C357.167 222.074 361.644 226.551 367.167 226.551H472.39C477.913 226.551 482.39 222.074 482.39 216.551C482.39 211.028 477.913 206.551 472.39 206.551H367.167ZM377.167 309.674V296.648H408.357V309.674H377.167ZM555.62 309.674V296.648H585.388V309.674H555.62ZM555.62 329.674H585.388V343.374H555.62V329.674ZM555.62 363.374H585.388V377.075H555.62V363.374ZM555.62 397.075H585.388V409.427H555.62V397.075ZM555.62 429.427H585.388V443.128H555.62V429.427ZM555.62 463.128H585.388V476.828H555.62V463.128ZM408.357 463.128V476.828H377.167V463.128H408.357ZM408.357 443.128H377.167V429.427H408.357V443.128ZM408.357 409.427H377.167V397.075H408.357V409.427ZM408.357 377.075H377.167V363.374H408.357V377.075ZM408.357 343.374H377.167V329.674H408.357V343.374ZM545.62 527.379C540.097 527.379 535.62 531.856 535.62 537.379C535.62 542.902 540.097 547.379 545.62 547.379H595.388C600.911 547.379 605.388 542.902 605.388 537.379C605.388 531.856 600.911 527.379 595.388 527.379H545.62ZM488.032 563.101C482.509 563.101 478.032 567.578 478.032 573.101C478.032 578.624 482.509 583.101 488.032 583.101H595.388C600.911 583.101 605.388 578.624 605.388 573.101C605.388 567.578 600.911 563.101 595.388 563.101H488.032Z" fill="#FF2E63"/>
<path d="M540 58.6732L540.486 58.7887L540.572 58.4287L540.253 58.2418L540 58.6732ZM1 308.673L0.514876 308.552L0.359901 309.173H1V308.673ZM163 308.673L162.503 308.622L162.446 309.173H163V308.673ZM197 308.673L197.499 308.64L197.468 308.173H197V308.673ZM197.982 325.395L197.482 325.423L197.482 325.423L197.982 325.395ZM38 308.673L38.4968 308.729L38.5597 308.173H38V308.673ZM655.057 229.011L655.409 228.657L655.409 228.657L655.057 229.011ZM584.67 158.914L584.318 159.269L584.318 159.269L584.67 158.914ZM246 232.673V232.173H245.615L245.516 232.546L246 232.673ZM226 308.673L225.516 308.546L225.351 309.173H226V308.673ZM263 308.673L263.489 308.776L263.616 308.173H263V308.673ZM251 365.673L250.511 365.57L250.384 366.173H251V365.673ZM478 499.673L478.183 500.139L478.428 500.042L478.487 499.785L478 499.673ZM321 615H320.5V615.5H321V615ZM638 615V615.5H638.5V615H638ZM638 246.097H638.5V245.597H638V246.097ZM567.614 176H568.114V175.5H567.614V176ZM507 197.673V198.173H507.395L507.486 197.789L507 197.673ZM452 197.673L451.527 197.834L451.642 198.173H452V197.673ZM321 176V175.5H320.5V176H321ZM332 365.673L332.489 365.777L332.617 365.173H332V365.673ZM500 232.673L500.492 232.764L500.601 232.173H500V232.673ZM428.357 296.648V296.148H427.857V296.648H428.357ZM428.357 309.674H427.857V310.174H428.357V309.674ZM428.357 329.674V329.174H427.857V329.674H428.357ZM428.357 343.374H427.857V343.874H428.357V343.374ZM428.357 363.374V362.874H427.857V363.374H428.357ZM428.357 377.075H427.857V377.575H428.357V377.075ZM428.357 397.075V396.575H427.857V397.075H428.357ZM428.357 409.427H427.857V409.927H428.357V409.427ZM428.357 429.427V428.927H427.857V429.427H428.357ZM428.357 443.128H427.857V443.628H428.357V443.128ZM428.357 463.128V462.628H427.857V463.128H428.357ZM428.357 476.828H427.857V477.328H428.357V476.828ZM535.62 463.128H536.12V462.628H535.62V463.128ZM535.62 476.828V477.328H536.12V476.828H535.62ZM535.62 443.128V443.628H536.12V443.128H535.62ZM535.62 429.427H536.12V428.927H535.62V429.427ZM535.62 409.427V409.927H536.12V409.427H535.62ZM535.62 397.075H536.12V396.575H535.62V397.075ZM535.62 377.075V377.575H536.12V377.075H535.62ZM535.62 363.374H536.12V362.874H535.62V363.374ZM535.62 343.374V343.874H536.12V343.374H535.62ZM535.62 329.674H536.12V329.174H535.62V329.674ZM535.62 309.674V310.174H536.12V309.674H535.62ZM535.62 296.648H536.12V296.148H535.62V296.648ZM486 308.673L485.508 308.583L485.399 309.173H486V308.673ZM522 308.673L522.487 308.785L522.628 308.173H522V308.673ZM587.614 190.072L587.967 189.718L587.114 188.868V190.072H587.614ZM623.787 226.097V226.597H624.998L624.14 225.743L623.787 226.097ZM587.614 226.097H587.114V226.597H587.614V226.097ZM377.167 296.648V296.148H376.667V296.648H377.167ZM377.167 309.674H376.667V310.174H377.167V309.674ZM408.357 296.648H408.857V296.148H408.357V296.648ZM408.357 309.674V310.174H408.857V309.674H408.357ZM555.62 296.648V296.148H555.12V296.648H555.62ZM555.62 309.674H555.12V310.174H555.62V309.674ZM585.388 296.648H585.888V296.148H585.388V296.648ZM585.388 309.674V310.174H585.888V309.674H585.388ZM585.388 329.674H585.888V329.174H585.388V329.674ZM555.62 329.674V329.174H555.12V329.674H555.62ZM585.388 343.374V343.874H585.888V343.374H585.388ZM555.62 343.374H555.12V343.874H555.62V343.374ZM585.388 363.374H585.888V362.874H585.388V363.374ZM555.62 363.374V362.874H555.12V363.374H555.62ZM585.388 377.075V377.575H585.888V377.075H585.388ZM555.62 377.075H555.12V377.575H555.62V377.075ZM585.388 397.075H585.888V396.575H585.388V397.075ZM555.62 397.075V396.575H555.12V397.075H555.62ZM585.388 409.427V409.927H585.888V409.427H585.388ZM555.62 409.427H555.12V409.927H555.62V409.427ZM585.388 429.427H585.888V428.927H585.388V429.427ZM555.62 429.427V428.927H555.12V429.427H555.62ZM585.388 443.128V443.628H585.888V443.128H585.388ZM555.62 443.128H555.12V443.628H555.62V443.128ZM585.388 463.128H585.888V462.628H585.388V463.128ZM555.62 463.128V462.628H555.12V463.128H555.62ZM585.388 476.828V477.328H585.888V476.828H585.388ZM555.62 476.828H555.12V477.328H555.62V476.828ZM408.357 476.828V477.328H408.857V476.828H408.357ZM408.357 463.128H408.857V462.628H408.357V463.128ZM377.167 476.828H376.667V477.328H377.167V476.828ZM377.167 463.128V462.628H376.667V463.128H377.167ZM377.167 443.128H376.667V443.628H377.167V443.128ZM408.357 443.128V443.628H408.857V443.128H408.357ZM377.167 429.427V428.927H376.667V429.427H377.167ZM408.357 429.427H408.857V428.927H408.357V429.427ZM377.167 409.427H376.667V409.927H377.167V409.427ZM408.357 409.427V409.927H408.857V409.427H408.357ZM377.167 397.075V396.575H376.667V397.075H377.167ZM408.357 397.075H408.857V396.575H408.357V397.075ZM377.167 377.075H376.667V377.575H377.167V377.075ZM408.357 377.075V377.575H408.857V377.075H408.357ZM377.167 363.374V362.874H376.667V363.374H377.167ZM408.357 363.374H408.857V362.874H408.357V363.374ZM377.167 343.374H376.667V343.874H377.167V343.374ZM408.357 343.374V343.874H408.857V343.374H408.357ZM377.167 329.674V329.174H376.667V329.674H377.167ZM408.357 329.674H408.857V329.174H408.357V329.674ZM540.253 58.2418C422.156 -10.9481 303.914 -15.3353 206.831 31.0943C109.757 77.5196 33.9114 174.716 0.514876 308.552L1.48512 308.794C34.824 175.189 110.507 78.2693 207.262 31.9964C304.009 -14.2723 421.9 -9.93918 539.747 59.1046L540.253 58.2418ZM517.38 156.115L540.486 58.7887L539.514 58.5577L516.407 155.885L517.38 156.115ZM425.439 156.5H516.894V155.5H425.439V156.5ZM163.497 308.725C170.394 242.028 217.049 187.079 271.413 157.239C325.806 127.384 387.692 122.769 425.105 156.372L425.773 155.628C387.891 121.603 325.476 126.424 270.932 156.363C216.359 186.317 169.442 241.518 162.503 308.622L163.497 308.725ZM197 308.173H163V309.173H197V308.173ZM198.481 325.368C198.185 319.953 197.88 314.37 197.499 308.64L196.501 308.706C196.882 314.43 197.186 320.007 197.482 325.423L198.481 325.368ZM300.963 419.146C252.256 422.717 227.572 414.446 214.585 397.854C208.08 389.544 204.466 379.096 202.274 366.871C200.081 354.643 199.318 340.685 198.481 325.368L197.482 325.423C198.318 340.722 199.084 354.747 201.29 367.048C203.496 379.352 207.151 389.98 213.798 398.471C227.114 415.483 252.266 423.719 301.037 420.143L300.963 419.146ZM301.5 548.062V419.645H300.5V548.062H301.5ZM37.5032 308.617C27.4762 397.381 47.7197 463.354 93.3774 504.148C139.024 544.933 209.954 560.442 301.065 548.558L300.935 547.566C209.973 559.431 139.387 543.916 94.0436 503.402C48.7115 462.899 28.4916 397.302 38.4968 308.729L37.5032 308.617ZM1 309.173H38V308.173H1V309.173ZM301.065 548.558C307.633 547.701 314.306 546.702 321.083 545.56L320.917 544.574C314.152 545.714 307.491 546.711 300.935 547.566L301.065 548.558ZM301.5 625V548.062H300.5V625H301.5ZM311 634.5C305.753 634.5 301.5 630.247 301.5 625H300.5C300.5 630.799 305.201 635.5 311 635.5V634.5ZM648 634.5H311V635.5H648V634.5ZM657.5 625C657.5 630.247 653.247 634.5 648 634.5V635.5C653.799 635.5 658.5 630.799 658.5 625H657.5ZM657.5 236.097V625H658.5V236.097H657.5ZM654.704 229.366C656.494 231.148 657.5 233.571 657.5 236.097H658.5C658.5 233.305 657.388 230.627 655.409 228.657L654.704 229.366ZM584.318 159.269L654.704 229.366L655.409 228.657L585.023 158.56L584.318 159.269ZM577.614 156.5C580.127 156.5 582.537 157.496 584.318 159.269L585.023 158.56C583.055 156.6 580.391 155.5 577.614 155.5V156.5ZM516.894 156.5H577.614V155.5H516.894V156.5ZM512.632 176.115L517.38 156.115L516.407 155.885L511.659 175.885L512.632 176.115ZM512.145 175.5H441.962V176.5H512.145V175.5ZM425.105 156.372C431.295 161.931 436.82 168.54 441.536 176.261L442.389 175.739C437.624 167.938 432.037 161.254 425.773 155.628L425.105 156.372ZM311 156.5H425.439V155.5H311V156.5ZM301.5 166C301.5 160.753 305.753 156.5 311 156.5V155.5C305.201 155.5 300.5 160.201 300.5 166H301.5ZM301.5 232.673V166H300.5V232.673H301.5ZM301 232.173H246V233.173H301V232.173ZM245.516 232.546L225.516 308.546L226.484 308.8L246.484 232.8L245.516 232.546ZM226 309.173H263V308.173H226V309.173ZM262.511 308.57L250.511 365.57L251.489 365.776L263.489 308.776L262.511 308.57ZM251 366.173H301V365.173H251V366.173ZM301.5 419.645V365.673H300.5V419.645H301.5ZM320.94 417.177C313.87 418.033 307.219 418.687 300.963 419.146L301.037 420.143C307.31 419.683 313.976 419.028 321.06 418.17L320.94 417.177ZM320.5 417.673V545.067H321.5V417.673H320.5ZM478.487 499.785L479.143 496.94L478.168 496.716L477.513 499.561L478.487 499.785ZM321.083 545.56C368.586 537.552 421.167 522.507 478.183 500.139L477.817 499.208C420.853 521.556 368.339 536.58 320.917 544.574L321.083 545.56ZM320.5 545.067V615H321.5V545.067H320.5ZM321 615.5H638V614.5H321V615.5ZM638.5 615V246.097H637.5V615H638.5ZM638 245.597H577.614V246.597H638V245.597ZM577.614 245.597C572.367 245.597 568.114 241.344 568.114 236.097H567.114C567.114 241.896 571.815 246.597 577.614 246.597V245.597ZM568.114 236.097V176H567.114V236.097H568.114ZM567.614 175.5H512.145V176.5H567.614V175.5ZM507.486 197.789L512.632 176.115L511.659 175.885L506.514 197.558L507.486 197.789ZM452 198.173H507V197.173H452V198.173ZM441.536 176.261C445.451 182.672 448.81 189.851 451.527 197.834L452.473 197.512C449.734 189.464 446.346 182.217 442.389 175.739L441.536 176.261ZM441.962 175.5H321V176.5H441.962V175.5ZM320.5 176V232.673H321.5V176H320.5ZM321 232.173H301V233.173H321V232.173ZM301.5 365.673V232.673H300.5V365.673H301.5ZM301 366.173H321V365.173H301V366.173ZM320.5 365.673V417.673H321.5V365.673H320.5ZM331.511 365.57L320.511 417.57L321.489 417.777L332.489 365.777L331.511 365.57ZM321 366.173H332V365.173H321V366.173ZM320.5 232.673V365.673H321.5V232.673H320.5ZM500 232.173H321V233.173H500V232.173ZM492.391 276.738L500.492 232.764L499.508 232.583L491.408 276.557L492.391 276.738ZM418.357 277.148H491.899V276.148H418.357V277.148ZM367.167 277.148H418.357V276.148H367.167V277.148ZM357.667 286.648C357.667 281.401 361.92 277.148 367.167 277.148V276.148C361.368 276.148 356.667 280.849 356.667 286.648H357.667ZM357.667 319.674V286.648H356.667V319.674H357.667ZM357.667 353.374V319.674H356.667V353.374H357.667ZM357.667 387.075V353.374H356.667V387.075H357.667ZM357.667 419.427V387.075H356.667V419.427H357.667ZM357.667 453.128V419.427H356.667V453.128H357.667ZM357.667 486.828V453.128H356.667V486.828H357.667ZM367.167 496.328C361.92 496.328 357.667 492.075 357.667 486.828H356.667C356.667 492.627 361.368 497.328 367.167 497.328V496.328ZM418.357 496.328H367.167V497.328H418.357V496.328ZM478.655 496.328H418.357V497.328H478.655V496.328ZM479.143 496.94L483.75 476.94L482.775 476.716L478.168 496.716L479.143 496.94ZM545.62 496.328H478.655V497.328H545.62V496.328ZM595.388 496.328H545.62V497.328H595.388V496.328ZM604.888 486.828C604.888 492.075 600.635 496.328 595.388 496.328V497.328C601.187 497.328 605.888 492.627 605.888 486.828H604.888ZM604.888 453.128V486.828H605.888V453.128H604.888ZM604.888 419.427V453.128H605.888V419.427H604.888ZM604.888 387.075V419.427H605.888V387.075H604.888ZM604.888 353.374V387.075H605.888V353.374H604.888ZM604.888 319.674V353.374H605.888V319.674H604.888ZM604.888 286.648V319.674H605.888V286.648H604.888ZM595.388 277.148C600.635 277.148 604.888 281.401 604.888 286.648H605.888C605.888 280.849 601.187 276.148 595.388 276.148V277.148ZM545.62 277.148H595.388V276.148H545.62V277.148ZM491.899 277.148H545.62V276.148H491.899V277.148ZM488.707 296.738L492.391 276.738L491.408 276.557L487.724 296.557L488.707 296.738ZM488.215 296.148H428.357V297.148H488.215V296.148ZM427.857 296.648V309.674H428.857V296.648H427.857ZM428.357 310.174H521.769V309.174H428.357V310.174ZM517.649 329.786L522.257 309.786L521.282 309.562L516.675 329.562L517.649 329.786ZM517.162 329.174H428.357V330.174H517.162V329.174ZM427.857 329.674V343.374H428.857V329.674H427.857ZM428.357 343.874H514.006V342.874H428.357V343.874ZM509.886 363.487L514.493 343.487L513.519 343.262L508.911 363.262L509.886 363.487ZM509.399 362.874H428.357V363.874H509.399V362.874ZM427.857 363.374V377.075H428.857V363.374H427.857ZM428.357 377.575H506.243V376.575H428.357V377.575ZM502.122 397.187L506.73 377.187L505.755 376.963L501.148 396.963L502.122 397.187ZM501.635 396.575H428.357V397.575H501.635V396.575ZM427.857 397.075V409.427H428.857V397.075H427.857ZM428.357 409.927H498.79V408.927H428.357V409.927ZM494.67 429.54L499.277 409.54L498.302 409.315L493.695 429.315L494.67 429.54ZM494.182 428.927H428.357V429.927H494.182V428.927ZM427.857 429.427V443.128H428.857V429.427H427.857ZM428.357 443.628H491.026V442.628H428.357V443.628ZM486.906 463.24L491.513 443.24L490.539 443.016L485.932 463.016L486.906 463.24ZM486.419 462.628H428.357V463.628H486.419V462.628ZM427.857 463.128V476.828H428.857V463.128H427.857ZM428.357 477.328H483.263V476.328H428.357V477.328ZM483.75 476.94L486.906 463.24L485.932 463.016L482.775 476.716L483.75 476.94ZM535.62 462.628H486.419V463.628H535.62V462.628ZM536.12 476.828V463.128H535.12V476.828H536.12ZM483.263 477.328H535.62V476.328H483.263V477.328ZM491.026 443.628H535.62V442.628H491.026V443.628ZM536.12 443.128V429.427H535.12V443.128H536.12ZM535.62 428.927H494.182V429.927H535.62V428.927ZM491.513 443.24L494.67 429.54L493.695 429.315L490.539 443.016L491.513 443.24ZM498.79 409.927H535.62V408.927H498.79V409.927ZM536.12 409.427V397.075H535.12V409.427H536.12ZM535.62 396.575H501.635V397.575H535.62V396.575ZM499.277 409.54L502.122 397.187L501.148 396.963L498.302 409.315L499.277 409.54ZM506.243 377.575H535.62V376.575H506.243V377.575ZM536.12 377.075V363.374H535.12V377.075H536.12ZM535.62 362.874H509.399V363.874H535.62V362.874ZM506.73 377.187L509.886 363.487L508.911 363.262L505.755 376.963L506.73 377.187ZM514.006 343.874H535.62V342.874H514.006V343.874ZM536.12 343.374V329.674H535.12V343.374H536.12ZM535.62 329.174H517.162V330.174H535.62V329.174ZM514.493 343.487L517.649 329.786L516.675 329.562L513.519 343.262L514.493 343.487ZM521.769 310.174H535.62V309.174H521.769V310.174ZM536.12 309.674V296.648H535.12V309.674H536.12ZM535.62 296.148H488.215V297.148H535.62V296.148ZM486.492 308.764L488.707 296.738L487.724 296.557L485.508 308.583L486.492 308.764ZM522 308.173H486V309.173H522V308.173ZM522.257 309.786L522.487 308.785L521.513 308.561L521.282 309.562L522.257 309.786ZM587.261 190.426L623.435 226.451L624.14 225.743L587.967 189.718L587.261 190.426ZM588.114 226.097V190.072H587.114V226.097H588.114ZM623.787 225.597H587.614V226.597H623.787V225.597ZM357.667 216.551C357.667 211.304 361.92 207.051 367.167 207.051V206.051C361.368 206.051 356.667 210.752 356.667 216.551H357.667ZM367.167 226.051C361.92 226.051 357.667 221.797 357.667 216.551H356.667C356.667 222.35 361.368 227.051 367.167 227.051V226.051ZM472.39 226.051H367.167V227.051H472.39V226.051ZM481.89 216.551C481.89 221.797 477.637 226.051 472.39 226.051V227.051C478.189 227.051 482.89 222.35 482.89 216.551H481.89ZM472.39 207.051C477.637 207.051 481.89 211.304 481.89 216.551H482.89C482.89 210.752 478.189 206.051 472.39 206.051V207.051ZM367.167 207.051H472.39V206.051H367.167V207.051ZM376.667 296.648V309.674H377.667V296.648H376.667ZM408.357 296.148H377.167V297.148H408.357V296.148ZM408.857 309.674V296.648H407.857V309.674H408.857ZM377.167 310.174H408.357V309.174H377.167V310.174ZM555.12 296.648V309.674H556.12V296.648H555.12ZM585.388 296.148H555.62V297.148H585.388V296.148ZM585.888 309.674V296.648H584.888V309.674H585.888ZM555.62 310.174H585.388V309.174H555.62V310.174ZM585.388 329.174H555.62V330.174H585.388V329.174ZM585.888 343.374V329.674H584.888V343.374H585.888ZM555.62 343.874H585.388V342.874H555.62V343.874ZM555.12 329.674V343.374H556.12V329.674H555.12ZM585.388 362.874H555.62V363.874H585.388V362.874ZM585.888 377.075V363.374H584.888V377.075H585.888ZM555.62 377.575H585.388V376.575H555.62V377.575ZM555.12 363.374V377.075H556.12V363.374H555.12ZM585.388 396.575H555.62V397.575H585.388V396.575ZM585.888 409.427V397.075H584.888V409.427H585.888ZM555.62 409.927H585.388V408.927H555.62V409.927ZM555.12 397.075V409.427H556.12V397.075H555.12ZM585.388 428.927H555.62V429.927H585.388V428.927ZM585.888 443.128V429.427H584.888V443.128H585.888ZM555.62 443.628H585.388V442.628H555.62V443.628ZM555.12 429.427V443.128H556.12V429.427H555.12ZM585.388 462.628H555.62V463.628H585.388V462.628ZM585.888 476.828V463.128H584.888V476.828H585.888ZM555.62 477.328H585.388V476.328H555.62V477.328ZM555.12 463.128V476.828H556.12V463.128H555.12ZM408.857 476.828V463.128H407.857V476.828H408.857ZM377.167 477.328H408.357V476.328H377.167V477.328ZM376.667 463.128V476.828H377.667V463.128H376.667ZM408.357 462.628H377.167V463.628H408.357V462.628ZM377.167 443.628H408.357V442.628H377.167V443.628ZM376.667 429.427V443.128H377.667V429.427H376.667ZM408.357 428.927H377.167V429.927H408.357V428.927ZM408.857 443.128V429.427H407.857V443.128H408.857ZM377.167 409.927H408.357V408.927H377.167V409.927ZM376.667 397.075V409.427H377.667V397.075H376.667ZM408.357 396.575H377.167V397.575H408.357V396.575ZM408.857 409.427V397.075H407.857V409.427H408.857ZM377.167 377.575H408.357V376.575H377.167V377.575ZM376.667 363.374V377.075H377.667V363.374H376.667ZM408.357 362.874H377.167V363.874H408.357V362.874ZM408.857 377.075V363.374H407.857V377.075H408.857ZM377.167 343.874H408.357V342.874H377.167V343.874ZM376.667 329.674V343.374H377.667V329.674H376.667ZM408.357 329.174H377.167V330.174H408.357V329.174ZM408.857 343.374V329.674H407.857V343.374H408.857ZM536.12 537.379C536.12 532.132 540.374 527.879 545.62 527.879V526.879C539.821 526.879 535.12 531.58 535.12 537.379H536.12ZM545.62 546.879C540.374 546.879 536.12 542.626 536.12 537.379H535.12C535.12 543.178 539.821 547.879 545.62 547.879V546.879ZM595.388 546.879H545.62V547.879H595.388V546.879ZM604.888 537.379C604.888 542.626 600.635 546.879 595.388 546.879V547.879C601.187 547.879 605.888 543.178 605.888 537.379H604.888ZM595.388 527.879C600.635 527.879 604.888 532.132 604.888 537.379H605.888C605.888 531.58 601.187 526.879 595.388 526.879V527.879ZM545.62 527.879H595.388V526.879H545.62V527.879ZM478.532 573.101C478.532 567.855 482.785 563.601 488.032 563.601V562.601C482.233 562.601 477.532 567.302 477.532 573.101H478.532ZM488.032 582.601C482.785 582.601 478.532 578.348 478.532 573.101H477.532C477.532 578.9 482.233 583.601 488.032 583.601V582.601ZM595.388 582.601H488.032V583.601H595.388V582.601ZM604.888 573.101C604.888 578.348 600.635 582.601 595.388 582.601V583.601C601.187 583.601 605.888 578.9 605.888 573.101H604.888ZM595.388 563.601C600.635 563.601 604.888 567.855 604.888 573.101H605.888C605.888 567.302 601.187 562.601 595.388 562.601V563.601ZM488.032 563.601H595.388V562.601H488.032V563.601Z" fill="#FF2E63"/>
</g>
<defs>
<filter id="filter0_bi_3_42" x="-3.64008" y="-3.50006" width="666.14" height="643" filterUnits="userSpaceOnUse" color-interpolation-filters="sRGB">
<feFlood flood-opacity="0" result="BackgroundImageFix"/>
<feGaussianBlur in="BackgroundImageFix" stdDeviation="2"/>
<feComposite in2="SourceAlpha" operator="in" result="effect1_backgroundBlur_3_42"/>
<feBlend mode="normal" in="SourceGraphic" in2="effect1_backgroundBlur_3_42" result="shape"/>
<feColorMatrix in="SourceAlpha" type="matrix" values="0 0 0 0 0 0 0 0 0 0 0 0 0 0 0 0 0 0 127 0" result="hardAlpha"/>
<feOffset dy="4"/>
<feGaussianBlur stdDeviation="2"/>
<feComposite in2="hardAlpha" operator="arithmetic" k2="-1" k3="1"/>
<feColorMatrix type="matrix" values="0 0 0 0 0 0 0 0 0 0 0 0 0 0 0 0 0 0 0.25 0"/>
<feBlend mode="normal" in2="shape" result="effect2_innerShadow_3_42"/>
</filter>
</defs>
</svg>
